<svg id="Layer_1" data-name="Layer 1" xmlns="http://www.w3.org/2000/svg" viewBox="0 0 500 500"><defs><style>.cls-1,.cls-2,.cls-3,.cls-4,.cls-6,.cls-8{fill:none;stroke-linecap:round;stroke-miterlimit:10;}.cls-1{stroke:#499bd5;stroke-width:4.42px;}.cls-2,.cls-3,.cls-6,.cls-8{stroke:#fff;}.cls-2,.cls-3,.cls-6{stroke-width:1.89px;}.cls-3{stroke-dasharray:0.63 5.68;}.cls-4{stroke:#0b5cab;stroke-width:3.16px;}.cls-5{fill:#69c2ed;}.cls-6{stroke-dasharray:0.63 5.64;}.cls-7{fill:#203244;}.cls-9{fill:#0b5cab;}</style></defs><title>cloud backup 02 dark bg</title><path class="cls-1" d="M131.67,171.59a45.27,45.27,0,0,0,2.63,15.26"/><path class="cls-2" d="M323.49,62.9a69.64,69.64,0,0,0-92-5.76"/><path class="cls-3" d="M158.38,122.28A51.58,51.58,0,0,0,153.21,219"/><path class="cls-3" d="M319.38,90.72a50.4,50.4,0,0,0-28.52-25.36"/><path class="cls-4" d="M329.67,83.64A62.8,62.8,0,0,0,252.28,54"/><path class="cls-5" d="M311.73,125.09a41.42,41.42,0,0,0-76.61-29.31A37.41,37.41,0,0,0,178,138.15a31,31,0,0,0,4.54,61.61H308.19a37.42,37.42,0,0,0,3.54-74.67Z"/><path class="cls-2" d="M297,213.81A51.8,51.8,0,0,0,340,120"/><path class="cls-4" d="M364.32,137.1a57.36,57.36,0,0,0-37.41-28"/><path class="cls-4" d="M299.62,222.87a59.81,59.81,0,0,0,58.84-17.72"/><path class="cls-2" d="M323.48,230.89l.31,0"/><path class="cls-6" d="M329.33,229.76a66,66,0,0,0,50.4-61"/><path class="cls-2" d="M379.79,165.92q0-.16,0-.32"/><path class="cls-2" d="M381.61,183.73A69.52,69.52,0,0,0,384,170.12q.19-2.55.19-5.15"/><path class="cls-2" d="M297,232.5a69.85,69.85,0,0,0,17.42,2.19"/><path class="cls-4" d="M384.93,165A70.37,70.37,0,0,0,378.29,135"/><path class="cls-4" d="M339.1,98.81a70.14,70.14,0,0,0-13.43-3.57"/><path class="cls-2" d="M345.61,102.58A69.23,69.23,0,0,0,330.18,97"/><path class="cls-4" d="M143.52,198.25A41.92,41.92,0,0,0,176.31,214"/><path class="cls-4" d="M150.52,138.85a42.08,42.08,0,0,0-15.59,40.38"/><path class="cls-2" d="M134.4,198.25A49.37,49.37,0,0,0,195.09,217"/><path class="cls-2" d="M150.52,129.3a49.29,49.29,0,0,0-23.94,42.29"/><path class="cls-2" d="M163.11,133.89A47.36,47.36,0,0,1,209.75,78"/><path class="cls-4" d="M169,90.72a52.33,52.33,0,0,1,50.21-17.83"/><path class="cls-2" d="M318.12,78a57,57,0,0,1,8,12.68"/><path class="cls-2" d="M259,59.46a57.15,57.15,0,0,1,44.28,5.9"/><path class="cls-2" d="M229.07,79.64a57.31,57.31,0,0,1,11-10.83"/><path class="cls-3" d="M219.19,59.33A66.86,66.86,0,0,0,147,102.58"/><path class="cls-3" d="M338.38,84.8A83.84,83.84,0,0,1,394.3,140"/><rect class="cls-5" x="159.46" y="287.1" width="180.87" height="100.57" rx="10" ry="10"/><rect class="cls-7" x="167.56" y="294.17" width="164.68" height="86.43" rx="8.85" ry="8.85"/><path class="cls-5" d="M297.19,410.1H272a10,10,0,0,1-10-10V396a2.5,2.5,0,0,0-2.5-2.5H241a2.5,2.5,0,0,0-2.5,2.5v4.08a10,10,0,0,1-10,10H204A13.89,13.89,0,0,0,190.16,424v.22a2.39,2.39,0,0,0,2.39,2.39H308.69a2.39,2.39,0,0,0,2.39-2.39V424A13.89,13.89,0,0,0,297.19,410.1Z"/><line class="cls-4" x1="207.67" y1="276.18" x2="207.67" y2="302.18"/><line class="cls-1" x1="219.69" y1="337.58" x2="219.69" y2="189.97"/><path class="cls-3" d="M230.37,319.88A37.7,37.7,0,0,1,223,282.71c2.9-8.13,8.57-15,14.91-20.86s13.4-10.87,20-16.47c7.52-6.42,14.45-13.7,19.3-22.32s7.51-18.68,6.21-28.48-6.91-19.22-15.58-24"/><path class="cls-8" d="M219.14,313.53a37.7,37.7,0,0,1-1.69-37.86c4.09-7.6,10.73-13.53,17.88-18.37s14.89-8.72,22.22-13.27c8.41-5.21,16.35-11.37,22.45-19.16s10.24-17.34,10.43-27.22-3.93-20-11.79-26"/><path class="cls-9" d="M275.72,230.52,252.26,192.3a2.94,2.94,0,0,0-4.73,0l-23.46,38.23c-.88,1.43.4,3.12,2.36,3.12h11.84v68.68c0,3.39,2.37,6.14,5.29,6.14h12.8c2.92,0,5.29-2.75,5.29-6.14V233.64h11.69C275.32,233.64,276.6,232,275.72,230.52Z"/><path class="cls-1" d="M270.67,311.51l-.07-67.8"/><line class="cls-2" x1="278.33" y1="248.18" x2="278.33" y2="304.18"/><line class="cls-4" x1="207.67" y1="246.55" x2="207.67" y2="264.52"/><line class="cls-4" x1="207.67" y1="204.18" x2="207.67" y2="239.35"/></svg>